# Blender v2.92.0 OBJ File: 'snek.blend'
# www.blender.org
v 0.000000 0.617391 -0.000000
v 0.000000 0.308695 -0.534676
v 0.308695 0.534676 -0.000000
v 0.267338 0.463043 -0.308696
v 0.154348 0.267338 -0.534676
v 0.534676 0.308695 -0.000000
v 0.463043 0.267338 -0.308696
v 0.267338 0.154348 -0.534676
v 0.617391 -0.000000 -0.000000
v 0.534676 -0.000000 -0.308696
v 0.308695 0.000000 -0.534676
v 0.534676 -0.271851 -0.000000
v 0.463043 -0.260398 -0.308696
v 0.267338 -0.154348 -0.534676
v 0.308695 -0.419368 -0.000000
v 0.267338 -0.426199 -0.308696
v 0.154348 -0.267338 -0.534676
v -0.000000 -0.502083 -0.000000
v -0.000000 -0.497832 -0.308696
v 0.000000 -0.308695 -0.534676
v -0.308695 -0.419368 -0.000000
v -0.267338 -0.426199 -0.308696
v -0.154348 -0.267338 -0.534676
v -0.534676 -0.271851 -0.000000
v -0.463043 -0.260398 -0.308696
v -0.267338 -0.154348 -0.534676
v -0.617391 0.000000 -0.000000
v -0.534676 0.000000 -0.308696
v -0.308695 0.000000 -0.534676
v -0.534676 0.308695 -0.000000
v -0.463043 0.267338 -0.308696
v -0.267338 0.154348 -0.534676
v -0.308695 0.534676 -0.000000
v -0.267338 0.463043 -0.308696
v -0.154348 0.267338 -0.534676
v 0.000000 0.534676 -0.308696
v 0.000000 0.584573 0.587611
v 0.060695 -0.052332 1.360960
v 0.197410 0.248760 1.073215
v 0.297784 0.504782 0.587611
v 0.105127 -0.096765 1.360960
v 0.341924 0.104246 1.073215
v 0.515777 0.286789 0.587610
v 0.121391 -0.157460 1.360960
v 0.394819 -0.093164 1.073215
v 0.595568 -0.010995 0.587610
v 0.105127 -0.218155 1.360960
v 0.340361 -0.285615 1.075757
v 0.512127 -0.273819 0.595324
v 0.060695 -0.262587 1.360960
v 0.189088 -0.403940 1.096215
v 0.284818 -0.413544 0.635971
v -0.000000 -0.278850 1.360960
v -0.000000 -0.453503 1.099970
v -0.000000 -0.488797 0.646583
v -0.060695 -0.262587 1.360960
v -0.189088 -0.403940 1.096215
v -0.284818 -0.413544 0.635971
v -0.105127 -0.218155 1.360960
v -0.340361 -0.285615 1.075757
v -0.512127 -0.273819 0.595324
v -0.121391 -0.157460 1.360960
v -0.394819 -0.093164 1.073215
v -0.595568 -0.010995 0.587611
v -0.105127 -0.096765 1.360960
v -0.341923 0.104246 1.073215
v -0.515777 0.286789 0.587611
v -0.060695 -0.052333 1.360960
v -0.197410 0.248760 1.073215
v -0.297784 0.504782 0.587611
v -0.000000 -0.036069 1.360960
v 0.000000 0.301656 1.073215
v -0.000000 -0.164606 1.403747
v 0.000000 -0.000000 -0.617391
vt 0.685600 0.620202
vt 0.761971 0.545488
vt 0.685600 0.545488
vt 0.544650 0.786014
vt 0.653249 0.893198
vt 0.617781 0.930637
vt 0.685600 0.695710
vt 0.761971 0.620202
vt 0.559897 0.964951
vt 0.761971 0.695710
vt 0.838343 0.620202
vt 0.838343 0.545488
vt 0.463842 0.984598
vt 0.838343 0.695710
vt 0.914715 0.620202
vt 0.914715 0.545488
vt 0.461024 0.593976
vt 0.555538 0.610592
vt 0.020902 0.620202
vt 0.093019 0.695710
vt 0.093019 0.620202
vt 0.020902 0.545488
vt 0.093019 0.545488
vt 0.162321 0.695710
vt 0.162321 0.620202
vt 0.162321 0.545488
vt 0.613258 0.642303
vt 0.238693 0.620202
vt 0.238693 0.545488
vt 0.649851 0.677430
vt 0.238693 0.695710
vt 0.315065 0.545488
vt 0.671534 0.712835
vt 0.315065 0.620202
vt 0.384368 0.545488
vt 0.684126 0.748431
vt 0.315065 0.695710
vt 0.384368 0.620202
vt 0.456484 0.545488
vt 0.685600 0.826750
vt 0.609228 0.695710
vt 0.609228 0.826750
vt 0.688489 0.783926
vt 0.384368 0.695710
vt 0.456484 0.620202
vt 0.532856 0.695710
vt 0.532856 0.826750
vt 0.532856 0.620202
vt 0.532856 0.545488
vt 0.456484 0.695710
vt 0.456484 0.826750
vt 0.384368 0.826750
vt 0.685421 0.819591
vt 0.315065 0.826750
vt 0.238693 0.826750
vt 0.162321 0.826750
vt 0.674374 0.855949
vt 0.609228 0.620202
vt 0.093019 0.826750
vt 0.609228 0.545488
vt 0.020902 0.826750
vt 0.020902 0.695710
vt 0.838343 0.826750
vt 0.914715 0.695710
vt 0.761971 0.826750
vt 0.685600 0.902259
vt 0.448112 0.888305
vt 0.542804 0.785330
vt 0.483582 0.921139
vt 0.685600 0.976973
vt 0.761971 0.902259
vt 0.761971 0.976973
vt 0.838343 0.902259
vt 0.538900 0.947556
vt 0.838343 0.976973
vt 0.914715 0.902259
vt 0.914715 0.826750
vt 0.621224 0.953093
vt 0.020902 0.976973
vt 0.093019 0.902259
vt 0.020902 0.902259
vt 0.621224 0.607500
vt 0.533511 0.621861
vt 0.093019 0.976973
vt 0.162321 0.902259
vt 0.479315 0.651207
vt 0.162321 0.976973
vt 0.238693 0.902259
vt 0.445028 0.684414
vt 0.315065 0.902259
vt 0.424909 0.718083
vt 0.315065 0.976973
vt 0.384368 0.902259
vt 0.413858 0.752054
vt 0.384368 0.976973
vt 0.456484 0.902259
vt 0.411095 0.786008
vt 0.456484 0.976973
vt 0.532856 0.902259
vt 0.414649 0.819882
vt 0.532856 0.976973
vt 0.609228 0.902259
vt 0.426365 0.854050
vt 0.609228 0.976973
vt 0.914715 0.976973
vt 0.238693 0.976973
vn 0.0000 0.8760 -0.4823
vn 0.2654 0.4598 -0.8474
vn 0.0000 0.5309 -0.8474
vn 0.0000 0.0000 -1.0000
vn 0.0000 0.9949 -0.1003
vn 0.4380 0.7586 -0.4823
vn 0.4598 0.2655 -0.8474
vn 0.4967 0.8619 -0.1015
vn 0.7586 0.4380 -0.4823
vn 0.5314 -0.0007 -0.8471
vn 0.8606 0.4984 -0.1048
vn 0.8776 -0.0065 -0.4792
vn 0.4632 -0.2804 -0.8407
vn 0.8055 -0.5854 -0.0916
vn 0.7443 -0.5043 -0.4378
vn 0.4266 -0.9040 -0.0259
vn 0.4321 -0.8285 -0.3562
vn 0.2783 -0.4929 -0.8243
vn 0.0000 -0.9436 -0.3311
vn 0.0000 -0.5715 -0.8206
vn 0.0000 -1.0000 0.0029
vn -0.2783 -0.4929 -0.8243
vn -0.4321 -0.8285 -0.3562
vn -0.4632 -0.2804 -0.8407
vn -0.4266 -0.9040 -0.0259
vn -0.7443 -0.5043 -0.4378
vn -0.5314 -0.0007 -0.8471
vn 0.0000 0.9607 0.2774
vn -0.4967 0.8619 -0.1015
vn -0.4783 0.8360 0.2689
vn -0.8055 -0.5854 -0.0916
vn -0.8776 -0.0065 -0.4792
vn -0.8606 0.4984 -0.1048
vn -0.8361 0.4909 0.2446
vn -0.7586 0.4380 -0.4823
vn -0.4598 0.2654 -0.8474
vn -0.9939 -0.0146 -0.1094
vn -0.9783 -0.0092 0.2067
vn -0.7973 -0.5849 0.1489
vn -0.4135 -0.9071 0.0782
vn 0.0000 -0.9988 0.0490
vn 0.4135 -0.9071 0.0782
vn -0.2654 0.4598 -0.8474
vn -0.4380 0.7586 -0.4823
vn 0.7973 -0.5849 0.1489
vn 0.9783 -0.0092 0.2067
vn 0.9939 -0.0146 -0.1094
vn 0.8361 0.4909 0.2446
vn 0.4783 0.8360 0.2689
vn 0.0000 0.7782 0.6280
vn 0.0000 0.5145 0.8574
vn 0.0000 -0.0193 0.9998
vn 0.2654 0.4493 0.8530
vn 0.3969 0.6802 0.6162
vn 0.7073 0.4012 0.5820
vn 0.4744 0.2628 0.8401
vn 0.8501 -0.0126 0.5264
vn 0.5718 -0.0126 0.8203
vn 0.7480 -0.5060 0.4294
vn 0.5178 -0.3184 0.7940
vn 0.4330 -0.8302 0.3510
vn 0.3110 -0.5589 0.7687
vn 0.0000 -0.9481 0.3177
vn 0.0000 -0.6501 0.7598
vn -0.4330 -0.8302 0.3510
vn -0.3110 -0.5589 0.7687
vn -0.7480 -0.5060 0.4294
vn -0.5178 -0.3184 0.7940
vn -0.8501 -0.0126 0.5264
vn -0.5718 -0.0126 0.8203
vn -0.7073 0.4012 0.5820
vn -0.4744 0.2628 0.8401
vn -0.3969 0.6802 0.6162
vn -0.2654 0.4493 0.8530
s 1
f 36/1/1 5/2/2 2/3/3
f 74/4/4 2/5/3 5/6/2
f 1/7/5 4/8/6 36/1/1
f 74/4/4 5/6/2 8/9/7
f 3/10/8 7/11/9 4/8/6
f 4/8/6 8/12/7 5/2/2
f 74/4/4 8/9/7 11/13/10
f 6/14/11 10/15/12 7/11/9
f 7/11/9 11/16/10 8/12/7
f 74/4/4 11/17/10 14/18/13
f 10/19/12 12/20/14 13/21/15
f 11/22/10 13/21/15 14/23/13
f 13/21/15 15/24/16 16/25/17
f 14/23/13 16/25/17 17/26/18
f 74/4/4 14/18/13 17/27/18
f 17/26/18 19/28/19 20/29/20
f 74/4/4 17/27/18 20/30/20
f 16/25/17 18/31/21 19/28/19
f 19/28/19 23/32/22 20/29/20
f 74/4/4 20/30/20 23/33/22
f 18/31/21 22/34/23 19/28/19
f 22/34/23 26/35/24 23/32/22
f 74/4/4 23/33/22 26/36/24
f 21/37/25 25/38/26 22/34/23
f 25/38/26 29/39/27 26/35/24
f 37/40/28 3/10/8 1/7/5
f 37/40/28 33/41/29 70/42/30
f 74/4/4 26/36/24 29/43/27
f 24/44/31 28/45/32 25/38/26
f 70/42/30 30/46/33 67/47/34
f 29/39/27 31/48/35 32/49/36
f 67/47/34 27/50/37 64/51/38
f 64/51/38 24/44/31 61/52/39
f 74/4/4 29/43/27 32/53/36
f 28/45/32 30/46/33 31/48/35
f 61/52/39 21/37/25 58/54/40
f 58/54/40 18/31/21 55/55/41
f 52/56/42 18/31/21 15/24/16
f 74/4/4 32/53/36 35/57/43
f 30/46/33 34/58/44 31/48/35
f 49/59/45 15/24/16 12/20/14
f 31/48/35 35/60/43 32/49/36
f 46/61/46 12/20/14 9/62/47
f 74/4/4 35/57/43 2/5/3
f 33/41/29 36/1/1 34/58/44
f 43/63/48 9/64/47 6/14/11
f 34/58/44 2/3/3 35/60/43
f 40/65/49 6/14/11 3/10/8
f 72/66/50 40/65/49 37/40/28
f 71/67/51 73/68/52 38/69/53
f 71/70/51 39/71/54 72/66/50
f 38/72/53 42/73/55 39/71/54
f 39/71/54 43/63/48 40/65/49
f 38/69/53 73/68/52 41/74/56
f 41/75/56 45/76/57 42/73/55
f 42/73/55 46/77/46 43/63/48
f 41/74/56 73/68/52 44/78/58
f 44/79/58 48/80/59 45/81/57
f 45/81/57 49/59/45 46/61/46
f 44/82/58 73/68/52 47/83/60
f 47/84/60 51/85/61 48/80/59
f 48/80/59 52/56/42 49/59/45
f 47/83/60 73/68/52 50/86/62
f 50/87/62 54/88/63 51/85/61
f 51/85/61 55/55/41 52/56/42
f 50/86/62 73/68/52 53/89/64
f 55/55/41 57/90/65 58/54/40
f 53/89/64 73/68/52 56/91/66
f 54/88/63 56/92/66 57/90/65
f 58/54/40 60/93/67 61/52/39
f 56/91/66 73/68/52 59/94/68
f 57/90/65 59/95/68 60/93/67
f 61/52/39 63/96/69 64/51/38
f 59/94/68 73/68/52 62/97/70
f 60/93/67 62/98/70 63/96/69
f 64/51/38 66/99/71 67/47/34
f 62/97/70 73/68/52 65/100/72
f 63/96/69 65/101/72 66/99/71
f 67/47/34 69/102/73 70/42/30
f 65/100/72 73/68/52 68/103/74
f 66/99/71 68/104/74 69/102/73
f 68/103/74 73/68/52 71/67/51
f 69/102/73 71/70/51 72/66/50
f 70/42/30 72/66/50 37/40/28
f 36/1/1 4/8/6 5/2/2
f 1/7/5 3/10/8 4/8/6
f 3/10/8 6/14/11 7/11/9
f 4/8/6 7/11/9 8/12/7
f 6/14/11 9/64/47 10/15/12
f 7/11/9 10/15/12 11/16/10
f 10/19/12 9/62/47 12/20/14
f 11/22/10 10/19/12 13/21/15
f 13/21/15 12/20/14 15/24/16
f 14/23/13 13/21/15 16/25/17
f 17/26/18 16/25/17 19/28/19
f 16/25/17 15/24/16 18/31/21
f 19/28/19 22/34/23 23/32/22
f 18/31/21 21/37/25 22/34/23
f 22/34/23 25/38/26 26/35/24
f 21/37/25 24/44/31 25/38/26
f 25/38/26 28/45/32 29/39/27
f 37/40/28 40/65/49 3/10/8
f 37/40/28 1/7/5 33/41/29
f 24/44/31 27/50/37 28/45/32
f 70/42/30 33/41/29 30/46/33
f 29/39/27 28/45/32 31/48/35
f 67/47/34 30/46/33 27/50/37
f 64/51/38 27/50/37 24/44/31
f 28/45/32 27/50/37 30/46/33
f 61/52/39 24/44/31 21/37/25
f 58/54/40 21/37/25 18/31/21
f 52/56/42 55/55/41 18/31/21
f 30/46/33 33/41/29 34/58/44
f 49/59/45 52/56/42 15/24/16
f 31/48/35 34/58/44 35/60/43
f 46/61/46 49/59/45 12/20/14
f 33/41/29 1/7/5 36/1/1
f 43/63/48 46/77/46 9/64/47
f 34/58/44 36/1/1 2/3/3
f 40/65/49 43/63/48 6/14/11
f 72/66/50 39/71/54 40/65/49
f 71/70/51 38/72/53 39/71/54
f 38/72/53 41/75/56 42/73/55
f 39/71/54 42/73/55 43/63/48
f 41/75/56 44/105/58 45/76/57
f 42/73/55 45/76/57 46/77/46
f 44/79/58 47/84/60 48/80/59
f 45/81/57 48/80/59 49/59/45
f 47/84/60 50/87/62 51/85/61
f 48/80/59 51/85/61 52/56/42
f 50/87/62 53/106/64 54/88/63
f 51/85/61 54/88/63 55/55/41
f 55/55/41 54/88/63 57/90/65
f 54/88/63 53/106/64 56/92/66
f 58/54/40 57/90/65 60/93/67
f 57/90/65 56/92/66 59/95/68
f 61/52/39 60/93/67 63/96/69
f 60/93/67 59/95/68 62/98/70
f 64/51/38 63/96/69 66/99/71
f 63/96/69 62/98/70 65/101/72
f 67/47/34 66/99/71 69/102/73
f 66/99/71 65/101/72 68/104/74
f 69/102/73 68/104/74 71/70/51
f 70/42/30 69/102/73 72/66/50
